<svg width="118" height="44" viewBox="0 0 118 44" fill="none" xmlns="http://www.w3.org/2000/svg">
<g filter="url(#filter0_d_78_4)">
<path d="M0 29.2919V0L21.9872 0.198365C28.0203 0.595096 41.511 6.81054 37.8073 22.5475C35.0187 34.3965 20.6465 36.5212 14.2113 35.9041V10.3811L20.7806 10.1166V29.2919C24.7133 29.3801 32.5838 27.2466 31.7742 16.1998C31.4414 11.6587 28.4961 8.6615 24.6686 7.33951C19.2448 5.46617 11.9142 6.41381 6.56936 6.41381V29.2919H0Z" fill="#ffffff"/>
</g>
<path d="M42.9531 15V3.6875H46.9844C48.1146 3.6875 49.0911 3.91406 49.9141 4.36719C50.737 4.8151 51.3672 5.46354 51.8047 6.3125C52.2474 7.16146 52.4688 8.16667 52.4688 9.32812C52.4688 10.5 52.2474 11.513 51.8047 12.3672C51.362 13.2161 50.7266 13.8672 49.8984 14.3203C49.0703 14.7734 48.0833 15 46.9375 15H42.9531ZM46.8438 12.9844C47.9375 12.9844 48.7578 12.6875 49.3047 12.0938C49.8516 11.5 50.125 10.5781 50.125 9.32812C50.125 8.08854 49.8516 7.17448 49.3047 6.58594C48.763 5.9974 47.9479 5.70312 46.8594 5.70312H45.2969V12.9844H46.8438ZM52.4406 15L56.3625 3.6875H59.3781L63.2844 15H60.7688L59.9172 12.3906H55.8234L54.9719 15H52.4406ZM59.3234 10.5625L57.9094 6.23438H57.8313L56.4172 10.5625H59.3234ZM71.1 7.32812C70.9438 6.79167 70.6547 6.3724 70.2328 6.07031C69.8161 5.76302 69.3031 5.60938 68.6938 5.60938C68.1104 5.60938 67.5974 5.75521 67.1547 6.04688C66.712 6.33854 66.3682 6.76562 66.1234 7.32812C65.8786 7.88542 65.7563 8.55208 65.7563 9.32812C65.7563 10.1146 65.876 10.7891 66.1156 11.3516C66.3604 11.9141 66.7042 12.3438 67.1469 12.6406C67.5896 12.9323 68.1104 13.0781 68.7094 13.0781C69.2406 13.0781 69.699 12.9844 70.0844 12.7969C70.475 12.6042 70.7745 12.3307 70.9828 11.9766C71.1964 11.6224 71.3083 11.2083 71.3188 10.7344H68.8656V8.96875H73.5844V10.375C73.5844 11.349 73.376 12.1979 72.9594 12.9219C72.5479 13.6406 71.9724 14.1927 71.2328 14.5781C70.4932 14.9635 69.6469 15.1562 68.6938 15.1562C67.6417 15.1562 66.712 14.9219 65.9047 14.4531C65.1026 13.9792 64.4776 13.3073 64.0297 12.4375C63.587 11.5625 63.3656 10.5365 63.3656 9.35938C63.3656 8.16667 63.5948 7.13021 64.0531 6.25C64.5115 5.36979 65.1417 4.69792 65.9438 4.23438C66.7458 3.76562 67.6469 3.53125 68.6469 3.53125C69.4854 3.53125 70.251 3.69271 70.9438 4.01562C71.6417 4.33333 72.212 4.78125 72.6547 5.35938C73.0974 5.93229 73.3708 6.58854 73.475 7.32812H71.1ZM84.2125 3.6875V11.0312C84.2125 11.849 84.0172 12.5703 83.6266 13.1953C83.2359 13.8203 82.6865 14.3047 81.9781 14.6484C81.2698 14.987 80.4521 15.1562 79.525 15.1562C78.5979 15.1562 77.7802 14.987 77.0719 14.6484C76.3687 14.3047 75.8219 13.8203 75.4312 13.1953C75.0458 12.5703 74.8531 11.849 74.8531 11.0312V3.6875H77.1969V10.8438C77.1969 11.276 77.2932 11.6641 77.4859 12.0078C77.6786 12.3464 77.9521 12.612 78.3062 12.8047C78.6604 12.9974 79.0667 13.0938 79.525 13.0938C79.9885 13.0938 80.3974 12.9974 80.7516 12.8047C81.1057 12.612 81.3766 12.3464 81.5641 12.0078C81.7568 11.6641 81.8531 11.276 81.8531 10.8438V3.6875H84.2125ZM85.6688 3.6875H88.0125V8.70312H88.1688L92.2781 3.6875H95.1063L90.8875 8.75L95.1531 15H92.3406L89.2 10.3281L88.0125 11.7656V15H85.6688V3.6875ZM42.5156 21.6875H51.7812V23.625H48.3125V33H45.9844V23.625H42.5156V21.6875ZM52.7844 21.6875H60.3781V23.625H55.1281V26.375H59.9875V28.3125H55.1281V31.0625H60.3938V33H52.7844V21.6875ZM66.2406 25.5781H66.3188L68.6469 21.6875H71.3031L67.85 27.3438L71.3813 33H68.6625L66.3188 29.1094H66.2406L63.8969 33H61.1938L64.7406 27.3438L61.2563 21.6875H63.9281L66.2406 25.5781ZM71.8375 21.6875H81.1031V23.625H77.6344V33H75.3062V23.625H71.8375V21.6875ZM84.45 33H82.1063V21.6875H84.45V33ZM85.9062 21.6875H88.25V31.0625H93.125V33H85.9062V21.6875ZM94.1906 21.6875H101.784V23.625H96.5344V26.375H101.394V28.3125H96.5344V31.0625H101.8V33H94.1906V21.6875Z" fill="#ffffff"/>
<defs>
<filter id="filter0_d_78_4" x="0" y="0" width="46.4407" height="44" filterUnits="userSpaceOnUse" color-interpolation-filters="sRGB">
<feFlood flood-opacity="0" result="BackgroundImageFix"/>
<feColorMatrix in="SourceAlpha" type="matrix" values="0 0 0 0 0 0 0 0 0 0 0 0 0 0 0 0 0 0 127 0" result="hardAlpha"/>
<feOffset dx="4" dy="4"/>
<feGaussianBlur stdDeviation="2"/>
<feComposite in2="hardAlpha" operator="out"/>
<feColorMatrix type="matrix" values="0 0 0 0 0 0 0 0 0 0 0 0 0 0 0 0 0 0 0.25 0"/>
<feBlend mode="normal" in2="BackgroundImageFix" result="effect1_dropShadow_78_4"/>
<feBlend mode="normal" in="SourceGraphic" in2="effect1_dropShadow_78_4" result="shape"/>
</filter>
</defs>
</svg>
